<svg xmlns="http://www.w3.org/2000/svg" width="32" height="32" viewBox="0 0 32 32" fill="none">
<path d="M21 9.33333H21.0167M12.6667 31H6C4.67392 31 3.40215 30.4732 2.46447 29.5355C1.52678 28.5979 1 27.3261 1 26V6C1 4.67392 1.52678 3.40215 2.46447 2.46447C3.40215 1.52678 4.67392 1 6 1H26C27.3261 1 28.5979 1.52678 29.5355 2.46447C30.4732 3.40215 31 4.67392 31 6V14.3333" stroke="black" stroke-width="2" stroke-linecap="round" stroke-linejoin="round"/>
<path d="M1 22.6664L9.33333 14.333C10.88 12.8447 12.7867 12.8447 14.3333 14.333L16 15.9997M19.3333 30.9997V24.333C19.3333 23.449 19.6845 22.6011 20.3096 21.976C20.9348 21.3509 21.7826 20.9997 22.6667 20.9997C23.5507 20.9997 24.3986 21.3509 25.0237 21.976C25.6488 22.6011 26 23.449 26 24.333V30.9997M19.3333 27.6664H26M31 20.9997V30.9997" stroke="black" stroke-width="2" stroke-linecap="round" stroke-linejoin="round"/>
</svg>