<svg xmlns="http://www.w3.org/2000/svg" width="27" height="28" viewBox="0 0 27 28" fill="none">
  <path d="M17.6667 8.69444H17.6806M10.7222 26.75H5.16667C4.0616 26.75 3.00179 26.311 2.22039 25.5296C1.43899 24.7482 1 23.6884 1 22.5833V5.91667C1 4.8116 1.43899 3.75179 2.22039 2.97039C3.00179 2.18899 4.0616 1.75 5.16667 1.75H21.8333C22.9384 1.75 23.9982 2.18899 24.7796 2.97039C25.561 3.75179 26 4.8116 26 5.91667V12.8611" stroke="black" stroke-width="2" stroke-linecap="round" stroke-linejoin="round"/>
  <path d="M1 19.8053L7.94444 12.8609C9.23333 11.6206 10.8222 11.6206 12.1111 12.8609L13.5 14.2498M16.2778 26.7498V21.1942C16.2778 20.4575 16.5704 19.751 17.0914 19.23C17.6123 18.7091 18.3188 18.4164 19.0556 18.4164C19.7923 18.4164 20.4988 18.7091 21.0197 19.23C21.5407 19.751 21.8333 20.4575 21.8333 21.1942V26.7498M16.2778 23.972H21.8333M26 18.4164V26.7498" stroke="black" stroke-width="2" stroke-linecap="round" stroke-linejoin="round"/>
</svg>