<svg xmlns="http://www.w3.org/2000/svg" width="27" height="28" viewBox="0 0 27 28" fill="none">
  <path d="M19.5906 17.8802C18.2549 20.1894 16.0351 21.5148 13.5 21.5148C10.9649 21.5148 8.74514 20.1907 7.40812 17.8802C7.33994 17.762 7.29569 17.6316 7.2779 17.4964C7.26011 17.3611 7.26913 17.2237 7.30445 17.092C7.33977 16.9602 7.40069 16.8367 7.48374 16.7285C7.56678 16.6203 7.67033 16.5295 7.78846 16.4614C7.90659 16.3932 8.037 16.3489 8.17223 16.3311C8.30747 16.3133 8.44488 16.3224 8.57663 16.3577C8.70838 16.393 8.83188 16.4539 8.94008 16.537C9.04829 16.62 9.13907 16.7236 9.20726 16.8417C10.1756 18.5175 11.6996 19.4378 13.5 19.4378C15.3004 19.4378 16.8244 18.5162 17.794 16.8417C17.859 16.7176 17.9483 16.6079 18.0567 16.5192C18.1651 16.4306 18.2904 16.3647 18.4249 16.3257C18.5594 16.2867 18.7004 16.2753 18.8394 16.2922C18.9785 16.309 19.1126 16.3539 19.2339 16.424C19.3551 16.4941 19.461 16.588 19.545 16.7C19.629 16.8121 19.6895 16.9399 19.7228 17.076C19.7562 17.212 19.7616 17.3534 19.7389 17.4916C19.7162 17.6298 19.6657 17.762 19.5906 17.8802ZM27 14.2455C27.0006 15.5899 26.8011 16.9269 26.4081 18.2125C26.358 18.3748 26.2688 18.5223 26.1485 18.6421L17.8966 26.894C17.7775 27.0146 17.6303 27.1038 17.4682 27.1536C14.7521 27.9889 11.8417 27.9458 9.15158 27.0305C6.46142 26.1152 4.12866 24.3744 2.48559 22.0559C0.842519 19.7375 -0.0270839 16.9598 0.000643015 14.1183C0.0283699 11.2768 0.952013 8.51652 2.64001 6.2306C4.32802 3.94469 6.69429 2.2497 9.40181 1.38708C12.1093 0.524448 15.02 0.538167 17.7193 1.42628C20.4185 2.31439 22.7687 4.03161 24.4351 6.33334C26.1015 8.63506 26.9991 11.4039 27 14.2455ZM24.9231 14.2455C24.9201 11.8558 24.1668 9.52729 22.7694 7.58866C21.3721 5.65002 19.4012 4.19911 17.135 3.44069C14.8688 2.68227 12.4217 2.65463 10.1389 3.36166C7.85611 4.06869 5.85299 5.4747 4.4122 7.38128C2.9714 9.28786 2.16568 11.5987 2.10873 13.9878C2.05178 16.3769 2.74647 18.7235 4.09478 20.6966C5.44309 22.6697 7.37694 24.1695 9.62342 24.9845C11.8699 25.7995 14.3156 25.8885 16.6154 25.2389L24.4934 17.3609C24.7795 16.3472 24.9241 15.2988 24.9231 14.2455ZM8.82692 13.2071C9.135 13.2071 9.43617 13.1157 9.69233 12.9446C9.94849 12.7734 10.1481 12.5301 10.266 12.2455C10.3839 11.9609 10.4148 11.6477 10.3547 11.3455C10.2946 11.0433 10.1462 10.7658 9.92838 10.5479C9.71053 10.3301 9.43298 10.1817 9.13081 10.1216C8.82865 10.0615 8.51545 10.0924 8.23082 10.2103C7.94619 10.3282 7.70291 10.5278 7.53175 10.784C7.36059 11.0401 7.26923 11.3413 7.26923 11.6494C7.26923 12.0625 7.43334 12.4587 7.72547 12.7508C8.01759 13.043 8.4138 13.2071 8.82692 13.2071ZM18.1731 10.0917C17.865 10.0917 17.5638 10.183 17.3077 10.3542C17.0515 10.5254 16.8519 10.7686 16.734 11.0533C16.6161 11.3379 16.5852 11.6511 16.6453 11.9533C16.7054 12.2554 16.8538 12.533 17.0716 12.7508C17.2895 12.9687 17.567 13.117 17.8692 13.1771C18.1713 13.2372 18.4845 13.2064 18.7692 13.0885C19.0538 12.9706 19.2971 12.771 19.4682 12.5148C19.6394 12.2586 19.7308 11.9575 19.7308 11.6494C19.7308 11.2363 19.5667 10.8401 19.2745 10.5479C18.9824 10.2558 18.5862 10.0917 18.1731 10.0917Z" fill="black"/>
</svg>