<svg xmlns="http://www.w3.org/2000/svg" width="38" height="38" viewBox="0 0 38 38" fill="none">
<path d="M27.5719 24.1091C25.692 27.3592 22.568 29.2245 19 29.2245C15.432 29.2245 12.308 27.361 10.4262 24.1091C10.3303 23.9428 10.268 23.7593 10.243 23.569C10.2179 23.3786 10.2306 23.1852 10.2803 22.9998C10.33 22.8144 10.4158 22.6406 10.5327 22.4883C10.6495 22.336 10.7953 22.2082 10.9615 22.1123C11.1278 22.0163 11.3113 21.954 11.5017 21.929C11.692 21.904 11.8854 21.9167 12.0708 21.9664C12.2562 22.0161 12.4301 22.1018 12.5823 22.2187C12.7346 22.3356 12.8624 22.4813 12.9584 22.6476C14.3212 25.0061 16.4661 26.3014 19 26.3014C21.5339 26.3014 23.6787 25.0043 25.0435 22.6476C25.1348 22.4729 25.2606 22.3185 25.4132 22.1937C25.5657 22.0689 25.742 21.9763 25.9313 21.9214C26.1206 21.8664 26.3191 21.8504 26.5147 21.8741C26.7104 21.8979 26.8993 21.961 27.0699 22.0597C27.2406 22.1583 27.3895 22.2905 27.5078 22.4482C27.626 22.6059 27.7112 22.7858 27.7581 22.9773C27.805 23.1688 27.8127 23.3677 27.7807 23.5622C27.7487 23.7567 27.6777 23.9428 27.5719 24.1091ZM38 18.9937C38.0009 20.8858 37.7201 22.7674 37.1669 24.5768C37.0964 24.8052 36.971 25.0128 36.8015 25.1815L25.1878 36.7953C25.0201 36.965 24.813 37.0905 24.5849 37.1606C20.7623 38.3362 16.6662 38.2756 12.88 36.9874C9.09384 35.6992 5.81071 33.2491 3.49824 29.9861C1.18577 26.7232 -0.0381181 22.8137 0.000904984 18.8146C0.039928 14.8155 1.33987 10.9307 3.71558 7.71344C6.09128 4.49623 9.4216 2.11069 13.2322 0.896625C17.0428 -0.317444 21.1393 -0.298135 24.9382 0.951801C28.7372 2.20174 32.0449 4.61856 34.3901 7.85803C36.7354 11.0975 37.9987 14.9944 38 18.9937ZM35.0769 18.9937C35.0727 15.6304 34.0125 12.3532 32.0459 9.62477C30.0792 6.89632 27.3054 4.85431 24.116 3.7869C20.9265 2.71949 17.4823 2.68059 14.2695 3.67567C11.0568 4.67075 8.23755 6.64958 6.20976 9.33291C4.18198 12.0162 3.048 15.2686 2.96784 18.631C2.88769 21.9934 3.86541 25.2961 5.76303 28.073C7.66065 30.8499 10.3824 32.9608 13.5441 34.1079C16.7058 35.2549 20.1479 35.3801 23.3846 34.4659L34.4722 23.3783C34.8749 21.9516 35.0783 20.4761 35.0769 18.9937ZM12.4231 17.5322C12.8567 17.5322 13.2805 17.4036 13.6411 17.1627C14.0016 16.9218 14.2826 16.5794 14.4485 16.1788C14.6144 15.7782 14.6578 15.3374 14.5733 14.9122C14.4887 14.4869 14.2799 14.0963 13.9733 13.7897C13.6667 13.4831 13.276 13.2743 12.8508 13.1897C12.4255 13.1051 11.9847 13.1485 11.5841 13.3144C11.1835 13.4804 10.8411 13.7614 10.6002 14.1219C10.3593 14.4824 10.2308 14.9063 10.2308 15.3399C10.2308 15.9213 10.4617 16.4789 10.8729 16.8901C11.284 17.3012 11.8416 17.5322 12.4231 17.5322ZM25.5769 13.1476C25.1433 13.1476 24.7195 13.2761 24.3589 13.517C23.9984 13.7579 23.7174 14.1003 23.5515 14.5009C23.3856 14.9015 23.3421 15.3423 23.4267 15.7676C23.5113 16.1928 23.7201 16.5835 24.0267 16.8901C24.3333 17.1967 24.724 17.4055 25.1492 17.4901C25.5745 17.5746 26.0153 17.5312 26.4159 17.3653C26.8165 17.1994 27.1589 16.9184 27.3998 16.5579C27.6406 16.1973 27.7692 15.7735 27.7692 15.3399C27.7692 14.7584 27.5383 14.2008 27.1271 13.7897C26.716 13.3785 26.1584 13.1476 25.5769 13.1476Z" fill="black"/>
</svg>