<svg
					xmlns="http://www.w3.org/2000/svg"
					width="34"
					height="34"
					viewBox="0 0 42 42"
					fill="none"
				>
					<path
						d="M21 1C9.954 1 1 9.954 1 21C1 32.046 9.954 41 21 41C32.046 41 41 32.046 41 21C41 9.954 32.046 1 21 1Z"
						stroke="black"
						stroke-width="1.5"
						stroke-linecap="round"
						stroke-linejoin="round"
					/>
					<path
						d="M5.54199 33.692C5.54199 33.692 9.99999 28 21 28C32 28 36.46 33.692 36.46 33.692M21 21C22.5913 21 24.1174 20.3679 25.2426 19.2426C26.3679 18.1174 27 16.5913 27 15C27 13.4087 26.3679 11.8826 25.2426 10.7574C24.1174 9.63214 22.5913 9 21 9C19.4087 9 17.8826 9.63214 16.7574 10.7574C15.6321 11.8826 15 13.4087 15 15C15 16.5913 15.6321 18.1174 16.7574 19.2426C17.8826 20.3679 19.4087 21 21 21Z"
						stroke="black"
						stroke-width="1.5"
						stroke-linecap="round"
						stroke-linejoin="round"
					/>
				</svg>