<svg xmlns="http://www.w3.org/2000/svg" width="36" height="35" viewBox="0 0 36 35" fill="none">
<path fill-rule="evenodd" clip-rule="evenodd" d="M13.9 13.3248C14.4437 13.3248 14.9651 13.1088 15.3496 12.7244C15.734 12.3399 15.95 11.8185 15.95 11.2748C15.95 10.7311 15.734 10.2097 15.3496 9.82524C14.9651 9.44079 14.4437 9.2248 13.9 9.2248C13.3563 9.2248 12.8349 9.44079 12.4504 9.82524C12.066 10.2097 11.85 10.7311 11.85 11.2748C11.85 11.8185 12.066 12.3399 12.4504 12.7244C12.8349 13.1088 13.3563 13.3248 13.9 13.3248ZM13.9 15.3748C14.9874 15.3748 16.0302 14.9428 16.7991 14.1739C17.568 13.405 18 12.3622 18 11.2748C18 10.1874 17.568 9.14457 16.7991 8.37567C16.0302 7.60677 14.9874 7.1748 13.9 7.1748C12.8126 7.1748 11.7697 7.60677 11.0008 8.37567C10.232 9.14457 9.79999 10.1874 9.79999 11.2748C9.79999 12.3622 10.232 13.405 11.0008 14.1739C11.7697 14.9428 12.8126 15.3748 13.9 15.3748Z" fill="black"/>
<path d="M12.875 18.8147L8.95948 24.0873H12.875L16.7905 26.1373H8.95948C8.57981 26.1369 8.20771 26.0311 7.88464 25.8317C7.56157 25.6322 7.30024 25.347 7.12976 25.0078C6.95929 24.6685 6.88638 24.2886 6.91915 23.9103C6.95193 23.5321 7.0891 23.1704 7.31538 22.8655L11.2288 17.5929C11.4195 17.3359 11.6677 17.1272 11.9536 16.9834C12.2394 16.8396 12.555 16.7646 12.875 16.7646C13.195 16.7646 13.5105 16.8396 13.7964 16.9834C14.0822 17.1272 14.3304 17.3359 14.5211 17.5929L16.4789 20.2292L14.8327 21.451L12.875 18.8147Z" fill="black"/>
<path fill-rule="evenodd" clip-rule="evenodd" d="M26.7269 24.0874L20.5625 16.9698L14.3982 24.0874H26.7269ZM22.1123 15.6271C21.9199 15.4048 21.6819 15.2265 21.4145 15.1044C21.1471 14.9822 20.8565 14.9189 20.5625 14.9189C20.2685 14.9189 19.978 14.9822 19.7106 15.1044C19.4432 15.2265 19.2052 15.4048 19.0127 15.6271L12.8484 22.7447C12.5909 23.0417 12.4243 23.4065 12.3683 23.7956C12.3123 24.1847 12.3694 24.5816 12.5327 24.9392C12.6961 25.2968 12.9588 25.5998 13.2895 25.8123C13.6202 26.0247 14.0051 26.1376 14.3982 26.1374H26.7269C27.12 26.1376 27.5048 26.0247 27.8355 25.8123C28.1663 25.5998 28.429 25.2968 28.5923 24.9392C28.7556 24.5816 28.8127 24.1847 28.7568 23.7956C28.7008 23.4065 28.5341 23.0417 28.2767 22.7447L22.1123 15.6271Z" fill="black"/>
<path fill-rule="evenodd" clip-rule="evenodd" d="M32.35 2.05H3.65001C3.37817 2.05 3.11745 2.15799 2.92523 2.35022C2.733 2.54244 2.62501 2.80315 2.62501 3.075V31.775C2.62501 32.0468 2.733 32.3076 2.92523 32.4998C3.11745 32.692 3.37817 32.8 3.65001 32.8H32.35C32.6219 32.8 32.8826 32.692 33.0748 32.4998C33.267 32.3076 33.375 32.0468 33.375 31.775V3.075C33.375 2.80315 33.267 2.54244 33.0748 2.35022C32.8826 2.15799 32.6219 2.05 32.35 2.05ZM3.65001 0C2.83447 0 2.05233 0.323972 1.47566 0.900647C0.898985 1.47732 0.575012 2.25946 0.575012 3.075V31.775C0.575012 32.5905 0.898985 33.3727 1.47566 33.9494C2.05233 34.526 2.83447 34.85 3.65001 34.85H32.35C33.1656 34.85 33.9477 34.526 34.5244 33.9494C35.101 33.3727 35.425 32.5905 35.425 31.775V3.075C35.425 2.25946 35.101 1.47732 34.5244 0.900647C33.9477 0.323972 33.1656 0 32.35 0H3.65001Z" fill="black"/>
</svg>