<svg
						xmlns="http://www.w3.org/2000/svg"
						width="23"
						height="23"
						viewBox="0 0 33 33"
						fill="none"
					>
						<path
							d="M8.0135 9.62461L11.5005 13.1102L9.55625 15.0559L2.75 8.24961L9.55625 1.44336L11.5005 3.38898L8.0135 6.87461H17.875C20.7924 6.87461 23.5903 8.03354 25.6532 10.0964C27.7161 12.1593 28.875 14.9572 28.875 17.8746C28.875 20.792 27.7161 23.5899 25.6532 25.6528C23.5903 27.7157 20.7924 28.8746 17.875 28.8746H5.5V26.1246H17.875C20.063 26.1246 22.1615 25.2554 23.7086 23.7082C25.2558 22.1611 26.125 20.0626 26.125 17.8746C26.125 15.6866 25.2558 13.5882 23.7086 12.041C22.1615 10.4938 20.063 9.62461 17.875 9.62461H8.0135Z"
							fill="black"
						/>
					</svg>