<svg xmlns="http://www.w3.org/2000/svg" width="27" height="28" viewBox="0 0 27 28" fill="none">
  <path d="M16.7895 8.3291H16.8026M13.5 25.4348H4.94737C3.90046 25.4348 2.89643 25.0189 2.15616 24.2786C1.41588 23.5383 1 22.5342 1 21.4873V5.69746C1 4.65053 1.41588 3.64648 2.15616 2.90618C2.89643 2.16589 3.90046 1.75 4.94737 1.75H20.7368C21.7837 1.75 22.7878 2.16589 23.528 2.90618C24.2683 3.64648 24.6842 4.65053 24.6842 5.69746V14.2503" stroke="black" stroke-width="2" stroke-linecap="round" stroke-linejoin="round"/>
  <path d="M1 18.8559L7.57894 12.2768C8.8 11.1018 10.3053 11.1018 11.5263 12.2768L16.1316 16.8821" stroke="black" stroke-width="2" stroke-linecap="round" stroke-linejoin="round"/>
  <path d="M15.4737 16.2235L16.7895 14.9077C17.6829 14.0485 18.7276 13.8169 19.7026 14.2156M22.0526 26.7501V18.8552M22.0526 18.8552L26 22.8026M22.0526 18.8552L18.1053 22.8026" stroke="black" stroke-width="2" stroke-linecap="round" stroke-linejoin="round"/>
</svg>