<svg xmlns="http://www.w3.org/2000/svg" width="16" height="16" viewBox="0 0 16 16" fill="none">
<path d="M1.168 4C1.448 3.409 2.051 3 2.75 3H13.25C13.948 3 14.55 3.409 14.831 4H1.168ZM5.171 6H1V7H5C5 6.65 5.061 6.313 5.171 6ZM6 7C5.99139 6.73217 6.0367 6.46535 6.13322 6.21537C6.22974 5.96539 6.37551 5.73736 6.56188 5.54481C6.74824 5.35226 6.9714 5.19913 7.2181 5.09451C7.4648 4.98989 7.73 4.9359 7.99797 4.93577C8.26593 4.93564 8.53119 4.98935 8.778 5.09373C9.0248 5.19811 9.24811 5.35101 9.43467 5.54337C9.62122 5.73573 9.76722 5.96362 9.864 6.2135C9.96077 6.46338 10.0063 6.73016 9.998 6.998C9.98184 7.51723 9.76428 8.0098 9.39137 8.37147C9.01845 8.73313 8.51945 8.93551 7.99997 8.93577C7.48048 8.93603 6.98128 8.73415 6.60801 8.37286C6.23474 8.01157 6.01668 7.51922 6 7ZM5.764 9H1V10H4.268C4.42437 9.72889 4.64218 9.49826 4.90392 9.32666C5.16566 9.15506 5.46402 9.04729 5.775 9.012L5.764 9ZM4 12H1.168C1.448 12.591 2.051 13 2.75 13H4V12ZM5 11C5 10.7348 5.10536 10.4804 5.29289 10.2929C5.48043 10.1054 5.73478 10 6 10H10C10.2652 10 10.5196 10.1054 10.7071 10.2929C10.8946 10.4804 11 10.7348 11 11V13H5V11ZM12 12V13H13.25C13.948 13 14.55 12.591 14.831 12H12ZM11.732 10C11.5756 9.72889 11.3578 9.49826 11.0961 9.32666C10.8343 9.15506 10.536 9.04729 10.225 9.012L10.236 9H15V10H11.732ZM11 7H15V6H10.83C10.94 6.313 11 6.65 11 7Z" fill="black"/>
</svg>