<svg xmlns="http://www.w3.org/2000/svg" width="22" height="22" viewBox="0 0 24 24" fill="none">
<path d="M6.74456 7.13247L16.8636 17.251M20.7001 13.4145C20.9666 13.1486 21.1435 12.8061 21.2061 12.4349C21.2688 12.0636 21.2141 11.6821 21.0496 11.3435C20.3716 9.94597 19.2611 8.12347 17.5816 6.41447C16.1536 4.95415 14.4706 3.76729 12.6156 2.91247C11.9326 2.59647 11.1256 2.75247 10.5931 3.28447L4.58606 9.29147C4.41795 9.45955 4.28459 9.6591 4.19361 9.87872C4.10262 10.0983 4.05579 10.3337 4.05579 10.5715C4.05579 10.8092 4.10262 11.0446 4.19361 11.2642C4.28459 11.4838 4.41795 11.6834 4.58606 11.8515L7.10956 14.375L3.33706 18.147C2.65706 18.827 2.55706 19.946 3.20056 20.6605C3.36174 20.84 3.55781 20.9849 3.77682 21.0861C3.99582 21.1874 4.23317 21.243 4.47437 21.2495C4.71557 21.256 4.95557 21.2133 5.17971 21.124C5.40386 21.0346 5.60745 20.9006 5.77806 20.73L9.62107 16.8865L12.1451 19.41C12.4845 19.7493 12.9448 19.94 13.4248 19.94C13.9048 19.94 14.3651 19.7493 14.7046 19.41L20.7001 13.4145Z" stroke="black" stroke-linecap="round" stroke-linejoin="round"/>
</svg>