<svg width="603" height="603" viewBox="0 0 603 603" fill="none" xmlns="http://www.w3.org/2000/svg">
<path d="M0 52C0 23.2812 23.2812 0 52 0H551C579.719 0 603 23.2812 603 52V551C603 579.719 579.719 603 551 603H52C23.2812 603 0 579.719 0 551V52Z" fill="#66CAD1"/>
<rect x="72.4836" y="75.5432" width="209.013" height="65.41" fill="white"/>
<rect x="71.9678" y="218.256" width="209.013" height="65.41" fill="white"/>
<path d="M141.187 140.953H281.497L212.31 218.256H72L141.187 140.953Z" fill="white"/>
<circle cx="182.5" cy="432.5" r="113.5" fill="white"/>
<circle cx="435.5" cy="180.5" r="113.5" fill="white"/>
<path d="M337.232 319L433.417 433.964L533.232 319V541H433.417H337.232V319Z" fill="white"/>
</svg>
