<svg width="20" height="20" viewBox="0 0 20 20" fill="none" xmlns="http://www.w3.org/2000/svg">
<path d="M10 4.49902V1.99902H5.5C5.36739 1.99902 5.24021 2.0517 5.14645 2.14547C5.05268 2.23924 5 2.36642 5 2.49902V8.99902H15V2.50002C15 2.36742 14.9473 2.24024 14.8536 2.14647C14.7598 2.0527 14.6326 2.00002 14.5 2.00002H13V5.50202C13 5.63463 12.9473 5.76181 12.8536 5.85558C12.7598 5.94935 12.6326 6.00202 12.5 6.00202C12.3674 6.00202 12.2402 5.94935 12.1464 5.85558C12.0527 5.76181 12 5.63463 12 5.50202V2.00002H11V4.50002C11 4.63263 10.9473 4.75981 10.8536 4.85358C10.7598 4.94734 10.6326 5.00002 10.5 5.00002C10.3674 5.00002 10.2402 4.94734 10.1464 4.85358C10.0527 4.75981 10 4.63163 10 4.49902ZM15 10H5V11.004C5 11.5345 5.21071 12.0432 5.58579 12.4182C5.96086 12.7933 6.46957 13.004 7 13.004H8.5V16.502C8.5 16.8998 8.65804 17.2814 8.93934 17.5627C9.22064 17.844 9.60218 18.002 10 18.002C10.3978 18.002 10.7794 17.844 11.0607 17.5627C11.342 17.2814 11.5 16.8998 11.5 16.502V13.004H13C13.5304 13.004 14.0391 12.7933 14.4142 12.4182C14.7893 12.0432 15 11.5345 15 11.004V10Z" fill="#66CAE1"/>
</svg>
