<svg
						xmlns="http://www.w3.org/2000/svg"
						width="23"
						height="23"
						viewBox="0 0 33 33"
						fill="none"
					>
						<path
							d="M24.9865 9.62461L21.4995 13.1102L23.4438 15.0559L30.25 8.24961L23.4438 1.44336L21.4995 3.38898L24.9865 6.87461H15.125C12.2076 6.87461 9.40972 8.03354 7.34682 10.0964C5.28392 12.1593 4.125 14.9572 4.125 17.8746C4.125 20.792 5.28392 23.5899 7.34682 25.6528C9.40972 27.7157 12.2076 28.8746 15.125 28.8746H27.5V26.1246H15.125C12.937 26.1246 10.8385 25.2554 9.29137 23.7082C7.74419 22.1611 6.875 20.0626 6.875 17.8746C6.875 15.6866 7.74419 13.5882 9.29137 12.041C10.8385 10.4938 12.937 9.62461 15.125 9.62461H24.9865Z"
							fill="black"
						/>
					</svg>