<svg xmlns="http://www.w3.org/2000/svg" width="27" height="27" viewBox="0 0 27 27" fill="none">
  <path fill-rule="evenodd" clip-rule="evenodd" d="M4.27223 4.50874C9.33214 -0.544653 17.5587 -0.491319 22.6492 4.60074C27.7425 9.69413 27.7958 17.9249 22.7346 22.985C17.6747 28.045 9.44413 27.993 4.35089 22.8996C2.91825 21.4728 1.8358 19.7334 1.18852 17.8179C0.541235 15.9023 0.346738 13.8628 0.620295 11.8595C0.656187 11.5966 0.795051 11.3587 1.00634 11.1981C1.21763 11.0376 1.48403 10.9676 1.74694 11.0035C2.00985 11.0394 2.24774 11.1782 2.40827 11.3895C2.5688 11.6008 2.63882 11.8672 2.60293 12.1302C2.37072 13.8279 2.53534 15.5564 3.08386 17.1798C3.63238 18.8032 4.54986 20.2773 5.7642 21.4863C10.0908 25.8117 17.0547 25.837 21.3212 21.5716C25.5865 17.3049 25.5612 10.3408 21.2359 6.01409C16.912 1.69137 9.95212 1.66337 5.68554 5.92342L6.68285 5.92742C6.81417 5.92803 6.94408 5.95451 7.06517 6.00533C7.18626 6.05615 7.29615 6.13033 7.38858 6.22362C7.481 6.31691 7.55415 6.4275 7.60383 6.54906C7.65352 6.67062 7.67878 6.80078 7.67817 6.9321C7.67755 7.06342 7.65108 7.19334 7.60026 7.31443C7.54944 7.43552 7.47527 7.54542 7.38198 7.63785C7.28869 7.73027 7.17811 7.80342 7.05655 7.85311C6.93499 7.9028 6.80484 7.92806 6.67352 7.92744L3.27891 7.91144C3.01532 7.91004 2.76294 7.80461 2.57667 7.61809C2.3904 7.43156 2.28532 7.17904 2.28427 6.91543L2.26693 3.52339C2.26623 3.39207 2.2914 3.2619 2.34101 3.1403C2.39062 3.01871 2.46369 2.90807 2.55605 2.81472C2.64841 2.72136 2.75825 2.64711 2.87931 2.59621C3.00037 2.54531 3.13026 2.51875 3.26158 2.51805C3.3929 2.51735 3.52307 2.54252 3.64466 2.59213C3.76625 2.64174 3.87688 2.71481 3.97024 2.80717C4.06359 2.89954 4.13783 3.00939 4.18874 3.13044C4.23964 3.2515 4.26619 3.3814 4.2669 3.51273L4.27223 4.50874ZM13.4987 7.41544C13.7639 7.41544 14.0183 7.5208 14.2058 7.70833C14.3934 7.89587 14.4987 8.15023 14.4987 8.41545V13.3355L17.54 16.3755C17.6355 16.4677 17.7118 16.5781 17.7642 16.7C17.8167 16.822 17.8443 16.9532 17.8456 17.086C17.8468 17.2188 17.8215 17.3505 17.7713 17.4734C17.7211 17.5963 17.6469 17.708 17.553 17.8019C17.4592 17.8959 17.3476 17.9702 17.2247 18.0205C17.1018 18.0709 16.9702 18.0962 16.8374 18.0951C16.7046 18.094 16.5734 18.0665 16.4514 18.0142C16.3293 17.9618 16.219 17.8857 16.1267 17.7902L12.5001 14.1635V8.41678C12.5001 8.15156 12.6054 7.89721 12.793 7.70967C12.9805 7.52213 13.2348 7.41677 13.5001 7.41677" fill="black"/>
</svg>