<svg xmlns="http://www.w3.org/2000/svg" width="27" height="31" viewBox="0 0 27 31" fill="none">
  <path d="M19.8 23.25H19.6172C19.4016 22.1563 19.0219 21.1504 18.4781 20.2324C17.9344 19.3145 17.2734 18.5234 16.4953 17.8594C15.7172 17.1953 14.8406 16.6777 13.8656 16.3066C12.8906 15.9355 11.8687 15.75 10.8 15.75C9.975 15.75 9.17812 15.8623 8.40937 16.0869C7.64062 16.3115 6.92344 16.624 6.25781 17.0244C5.59219 17.4248 4.9875 17.9131 4.44375 18.4893C3.9 19.0654 3.43125 19.7002 3.0375 20.3936C2.64375 21.0869 2.33906 21.834 2.12344 22.6348C1.90781 23.4355 1.8 24.2656 1.8 25.125H0C0 23.9531 0.164062 22.8252 0.492187 21.7412C0.820312 20.6572 1.29375 19.6563 1.9125 18.7383C2.53125 17.8203 3.2625 17.0049 4.10625 16.292C4.95 15.5791 5.90625 15.0176 6.975 14.6074C5.91562 13.8848 5.09062 12.9766 4.5 11.8828C3.90937 10.7891 3.60937 9.57812 3.6 8.25C3.6 7.21484 3.7875 6.24316 4.1625 5.33496C4.5375 4.42676 5.04844 3.63086 5.69531 2.94727C6.34219 2.26367 7.10625 1.72656 7.9875 1.33594C8.86875 0.945313 9.80625 0.75 10.8 0.75C11.7937 0.75 12.7266 0.945313 13.5984 1.33594C14.4703 1.72656 15.2344 2.25879 15.8906 2.93262C16.5469 3.60645 17.0625 4.40234 17.4375 5.32031C17.8125 6.23828 18 7.21484 18 8.25C18 8.89453 17.925 9.52441 17.775 10.1396C17.625 10.7549 17.4 11.3359 17.1 11.8828C16.8 12.4297 16.4484 12.9326 16.0453 13.3916C15.6422 13.8506 15.1687 14.2559 14.625 14.6074C15.675 15.0273 16.6406 15.6035 17.5219 16.3359C18.4031 17.0684 19.1625 17.9277 19.8 18.9141V23.25ZM5.4 8.25C5.4 9.03125 5.54062 9.75879 5.82187 10.4326C6.10312 11.1064 6.4875 11.7021 6.975 12.2197C7.4625 12.7373 8.03437 13.1426 8.69062 13.4355C9.34687 13.7285 10.05 13.875 10.8 13.875C11.5406 13.875 12.2391 13.7285 12.8953 13.4355C13.5516 13.1426 14.1234 12.7422 14.6109 12.2344C15.0984 11.7266 15.4875 11.1309 15.7781 10.4473C16.0687 9.76367 16.2094 9.03125 16.2 8.25C16.2 7.47852 16.0594 6.75098 15.7781 6.06738C15.4969 5.38379 15.1125 4.78809 14.625 4.28027C14.1375 3.77246 13.5609 3.36719 12.8953 3.06445C12.2297 2.76172 11.5312 2.61523 10.8 2.625C10.05 2.625 9.35156 2.77148 8.70469 3.06445C8.05781 3.35742 7.48594 3.75781 6.98906 4.26562C6.49219 4.77344 6.10312 5.37402 5.82187 6.06738C5.54062 6.76074 5.4 7.48828 5.4 8.25ZM23.4 25.125H27V27H23.4V30.75H21.6V27H18V25.125H21.6V21.375H23.4V25.125Z" fill="black"/>
</svg>