<svg xmlns="http://www.w3.org/2000/svg" width="54" height="32" viewBox="0 0 54 32" fill="none">
<path d="M42.75 27V31.5H15.75V27C15.75 27 15.75 18 29.25 18C42.75 18 42.75 27 42.75 27ZM36 6.75C36 5.41498 35.6041 4.10994 34.8624 2.9999C34.1207 1.88987 33.0665 1.02471 31.8331 0.513816C30.5997 0.00292468 29.2425 -0.130748 27.9331 0.129702C26.6238 0.390153 25.421 1.03303 24.477 1.97703C23.533 2.92104 22.8901 4.12377 22.6297 5.43314C22.3692 6.74252 22.5029 8.09971 23.0138 9.33312C23.5247 10.5665 24.3899 11.6207 25.4999 12.3624C26.6099 13.1041 27.915 13.5 29.25 13.5C31.0402 13.5 32.7571 12.7888 34.023 11.523C35.2888 10.2571 36 8.54021 36 6.75ZM43.2 18.135C44.4299 19.2697 45.4215 20.638 46.1169 22.1601C46.8122 23.6821 47.1974 25.3274 47.25 27V31.5H54V27C54 27 54 19.2375 43.2 18.135ZM40.5 2.56838e-06C39.8202 0.000409398 39.1446 0.106683 38.4975 0.315002C39.8139 2.20268 40.5196 4.44866 40.5196 6.75C40.5196 9.05134 39.8139 11.2973 38.4975 13.185C39.1446 13.3933 39.8202 13.4996 40.5 13.5C42.2902 13.5 44.0071 12.7888 45.273 11.523C46.5388 10.2571 47.25 8.54021 47.25 6.75C47.25 4.95979 46.5388 3.2429 45.273 1.97703C44.0071 0.711161 42.2902 2.56838e-06 40.5 2.56838e-06ZM18 11.25H11.25V4.5H6.75V11.25H0V15.75H6.75V22.5H11.25V15.75H18V11.25Z" fill="black"/>
</svg>