<svg xmlns="http://www.w3.org/2000/svg" width="25" height="26" viewBox="0 0 25 26" fill="none">
  <path d="M0 6.10714C0 4.68634 0.564412 3.32373 1.56907 2.31907C2.57373 1.31441 3.93634 0.75 5.35714 0.75H19.6429C21.0637 0.75 22.4263 1.31441 23.4309 2.31907C24.4356 3.32373 25 4.68634 25 6.10714V20.3929C25 21.8137 24.4356 23.1763 23.4309 24.1809C22.4263 25.1856 21.0637 25.75 19.6429 25.75H5.35714C3.93634 25.75 2.57373 25.1856 1.56907 24.1809C0.564412 23.1763 0 21.8137 0 20.3929V6.10714ZM5.35714 2.53571C4.40994 2.53571 3.50153 2.91199 2.83176 3.58176C2.16199 4.25153 1.78571 5.15994 1.78571 6.10714V7.99643L11.6071 7.90179V2.53571H5.35714ZM13.3929 2.53571V16.8214H23.2143V6.10714C23.2143 5.15994 22.838 4.25153 22.1682 3.58176C21.4985 2.91199 20.5901 2.53571 19.6429 2.53571H13.3929ZM23.2143 18.6071H13.3929V23.9643H19.6429C20.5901 23.9643 21.4985 23.588 22.1682 22.9182C22.838 22.2485 23.2143 21.3401 23.2143 20.3929V18.6071ZM11.6071 23.9643V9.6875L1.78571 9.78214V20.3929C1.78571 21.3401 2.16199 22.2485 2.83176 22.9182C3.50153 23.588 4.40994 23.9643 5.35714 23.9643H11.6071Z" fill="black"/>
</svg>