<svg xmlns="http://www.w3.org/2000/svg" width="32" height="31" viewBox="0 0 32 31" fill="none">
<path d="M0.5 6.64286C0.5 4.88106 1.19987 3.19143 2.44565 1.94565C3.69143 0.699871 5.38106 0 7.14286 0H24.8571C26.6189 0 28.3086 0.699871 29.5544 1.94565C30.8001 3.19143 31.5 4.88106 31.5 6.64286V24.3571C31.5 26.1189 30.8001 27.8086 29.5544 29.0544C28.3086 30.3001 26.6189 31 24.8571 31H7.14286C5.38106 31 3.69143 30.3001 2.44565 29.0544C1.19987 27.8086 0.5 26.1189 0.5 24.3571V6.64286ZM7.14286 2.21429C5.96833 2.21429 4.8419 2.68087 4.01138 3.51138C3.18087 4.3419 2.71429 5.46833 2.71429 6.64286V8.98557L14.8929 8.86821V2.21429H7.14286ZM17.1071 2.21429V19.9286H29.2857V6.64286C29.2857 5.46833 28.8191 4.3419 27.9886 3.51138C27.1581 2.68087 26.0317 2.21429 24.8571 2.21429H17.1071ZM29.2857 22.1429H17.1071V28.7857H24.8571C26.0317 28.7857 27.1581 28.3191 27.9886 27.4886C28.8191 26.6581 29.2857 25.5317 29.2857 24.3571V22.1429ZM14.8929 28.7857V11.0825L2.71429 11.1999V24.3571C2.71429 25.5317 3.18087 26.6581 4.01138 27.4886C4.8419 28.3191 5.96833 28.7857 7.14286 28.7857H14.8929Z" fill="black"/>
</svg>