<svg version="1.1" id="Layer_1" xmlns="http://www.w3.org/2000/svg" xmlns:xlink="http://www.w3.org/1999/xlink" x="0px" y="0px"
	 width="100%" viewBox="0 0 1200 630" enable-background="new 0 0 1200 630" xml:space="preserve">
<path fill="#FFFFFF" opacity="1.000000" stroke="none" 
	d="
M842.000000,631.000000 
	C562.833374,631.000000 284.166687,630.991150 5.500084,631.093201 
	C1.751047,631.094543 0.904525,630.249390 0.906435,626.500000 
	C1.011843,419.500061 1.011822,212.500076 0.906463,5.500135 
	C0.904555,1.751068 1.750627,0.906070 5.499935,0.907006 
	C402.499908,1.006187 799.499878,1.006183 1196.499878,0.907048 
	C1200.248535,0.906111 1201.095581,1.750266 1201.093628,5.499888 
	C1200.988159,212.499832 1200.988159,419.499817 1201.093506,626.499756 
	C1201.095337,630.248474 1200.250244,631.098083 1196.500122,631.094482 
	C1078.500122,630.979309 960.500061,631.000000 842.000000,631.000000 
z"/>
<path fill="#302F41" opacity="1.000000" stroke="none" 
	d="
M352.680939,447.712921 
	C363.968964,426.129120 374.801056,404.647675 387.062897,383.931854 
	C390.021454,378.933472 392.692078,373.714600 396.117554,369.054749 
	C400.836212,362.635712 401.966888,355.440582 403.313019,347.839325 
	C404.660828,340.228729 403.733032,335.637421 396.915497,330.880981 
	C387.152588,324.069611 379.659180,302.300201 387.084167,288.253662 
	C387.356750,287.072845 387.176422,286.072693 387.792328,285.501007 
	C393.358856,280.334015 393.161499,273.612122 392.593903,266.949951 
	C392.258850,263.017029 393.780792,260.831024 397.113129,259.032959 
	C423.306366,244.899719 450.065887,231.922440 477.117615,219.532669 
	C478.477539,218.909805 479.802460,218.179306 481.735291,218.223785 
	C486.699799,215.355347 491.104218,216.385117 495.680328,218.451416 
	C499.596832,220.219849 503.672150,221.814850 507.838196,222.817841 
	C518.940552,225.490799 524.810059,233.103378 528.142578,243.328003 
	C531.304871,253.030197 532.894653,262.991455 532.898804,273.652802 
	C529.633118,272.927856 529.929749,269.958405 529.597473,267.452087 
	C528.274963,257.476532 525.856689,247.857056 520.836548,239.035675 
	C519.011414,235.828461 516.904663,232.834885 513.553223,231.018906 
	C509.828064,229.000473 507.163879,229.855392 505.531860,233.764389 
	C503.785950,237.946213 502.973602,242.443954 502.728668,246.892120 
	C502.118347,257.976562 500.645721,269.001434 502.097961,280.211426 
	C503.226288,288.920837 502.445343,297.816406 502.365417,306.626434 
	C502.321899,311.423401 504.358948,316.151825 502.634460,321.350220 
	C498.006683,329.101257 492.984100,336.131104 488.261414,343.358337 
	C487.171631,345.026062 485.820740,346.657166 486.111206,348.793793 
	C486.887634,354.504791 484.787415,359.620514 482.802917,364.708893 
	C481.665802,367.624481 481.916260,370.002808 483.519745,372.680145 
	C489.326508,382.375610 494.330322,392.501007 499.210999,403.100677 
	C500.763763,407.199005 502.367584,410.877502 503.820862,415.028442 
	C505.192627,425.850952 504.016846,435.729065 499.358521,445.489502 
	C493.186340,458.421875 488.685669,472.062469 485.328674,486.044312 
	C484.380646,489.992828 484.157867,493.956543 484.405701,497.952698 
	C484.722076,503.054382 487.609161,504.615295 492.210205,502.307037 
	C494.981689,500.916626 496.880737,498.619904 498.626495,496.142548 
	C504.362640,488.002441 507.825562,478.827850 510.985291,469.487885 
	C511.729034,467.289368 511.801514,464.340271 515.361328,464.217957 
	C517.917908,472.854034 518.140686,481.422363 517.261292,489.830048 
	C515.062195,510.854370 518.059387,531.357788 522.242432,551.814087 
	C524.179932,561.289062 526.699036,570.616394 529.432617,580.323669 
	C531.814941,588.177795 534.512695,595.487610 536.850159,602.916138 
	C537.487854,604.942627 538.521423,606.956299 537.237915,609.474731 
	C513.990601,609.855164 491.004150,609.933411 468.017639,609.997498 
	C460.686462,610.017944 453.355164,610.000793 446.023926,610.000732 
	C438.843811,610.000671 438.919189,609.991455 438.019104,602.566162 
	C435.497406,581.763489 433.169983,560.942139 431.342468,540.013000 
	C429.490112,547.090454 430.052032,554.420715 429.410675,561.614807 
	C428.080017,576.540710 427.034698,591.494446 426.092316,606.450623 
	C425.914825,609.267273 425.115387,610.065125 422.320831,610.056763 
	C381.501556,609.934448 340.681885,609.919434 299.417175,609.715881 
	C297.820557,607.658875 298.439484,605.616821 298.758026,603.735168 
	C303.084442,578.182617 309.749786,553.239075 318.647888,528.484131 
	C326.704834,502.330627 337.482849,477.697540 348.954834,453.346771 
	C349.867188,451.410187 350.644867,449.349884 352.680939,447.712921 
z"/>
<path fill="#F2FF63" opacity="1.000000" stroke="none" 
	d="
M320.319214,527.634644 
	C310.881683,554.343140 303.725433,581.263062 299.141785,609.221863 
	C285.331512,609.522400 271.729218,608.569214 258.232239,606.785645 
	C234.472534,603.645691 211.181396,598.449646 188.572220,590.244995 
	C156.067719,578.449463 127.178574,560.857422 101.788078,537.428894 
	C62.947758,501.589752 34.893108,458.410461 14.834407,409.784668 
	C13.123947,405.638184 11.659772,401.389221 9.915065,397.258026 
	C8.902283,394.859863 9.590573,394.302216 12.052649,393.843903 
	C20.089973,392.347748 28.233366,391.815704 36.334461,391.289124 
	C79.989594,388.451721 122.968689,392.461334 165.413925,404.852356 
	C167.488693,404.050201 169.037766,404.930389 170.584641,405.418915 
	C200.742981,414.943481 228.286087,429.494080 253.067688,449.096619 
	C278.992981,469.603851 300.473938,494.220825 318.783875,521.670044 
	C319.934235,523.394592 320.549561,525.221680 320.319214,527.634644 
z"/>
<path fill="#F2FF63" opacity="1.000000" stroke="none" 
	d="
M528.310913,582.110718 
	C525.307007,570.556885 522.300171,559.331177 519.845459,547.986023 
	C515.458557,527.711304 513.997986,507.235870 515.678467,486.480652 
	C516.264587,479.242065 515.182739,471.868469 514.829102,464.085327 
	C513.379211,461.811218 513.898132,459.829224 514.325867,457.892151 
	C520.664612,429.184662 525.013855,400.163116 528.284668,370.959503 
	C528.929382,365.203430 527.524048,359.330383 529.783081,353.390930 
	C539.044922,343.271606 547.690308,333.173035 557.403503,324.057709 
	C580.078186,302.778595 605.156616,284.855377 632.344543,269.814362 
	C644.280457,263.211121 656.437683,257.084595 668.949280,251.639572 
	C672.772949,249.975525 674.439758,249.854828 675.292358,254.965134 
	C680.299927,284.980713 680.885376,315.156097 679.424744,345.934509 
	C681.426941,351.883057 679.532959,357.318024 679.067871,362.713684 
	C678.382019,370.670654 677.027222,378.560669 675.215942,386.763611 
	C674.248657,390.316742 673.602478,393.525940 673.166138,397.153259 
	C673.072388,397.760162 673.024475,398.000031 672.878662,398.590454 
	C672.628845,399.395905 672.472229,399.849152 672.207520,400.640076 
	C671.745239,402.816010 670.443420,404.389557 670.604431,406.732239 
	C660.560364,445.005859 643.712097,479.485199 618.335083,509.536438 
	C595.699158,536.341675 569.211853,558.785339 539.562317,577.474731 
	C536.214905,579.584717 533.390991,583.406677 528.310913,582.110718 
z"/>
<path fill="#403E56" opacity="1.000000" stroke="none" 
	d="
M528.148560,582.196289 
	C529.971924,582.942200 531.264587,581.406067 532.563354,580.599854 
	C574.314453,554.683228 610.736572,523.072876 637.480347,481.338013 
	C651.273315,459.813507 661.072754,436.447205 668.039001,411.874481 
	C668.488403,410.289093 669.101013,408.749939 670.066040,407.105530 
	C690.379272,400.709625 710.817932,397.210571 731.516235,395.057648 
	C755.574951,392.555237 779.673462,392.112915 803.790710,394.015625 
	C810.745178,394.564270 817.663086,395.571106 824.600403,396.343964 
	C827.395508,396.655396 828.544312,397.262024 827.198242,400.665558 
	C805.790039,454.797852 775.315063,502.808899 731.612183,541.754395 
	C694.939758,574.434814 651.741516,593.712708 603.737244,602.974731 
	C581.935974,607.181091 559.918640,608.785583 537.396484,609.800659 
	C535.237061,600.329590 531.752502,591.437134 528.148560,582.196289 
z"/>
<path fill="#403E56" opacity="1.000000" stroke="none" 
	d="
M320.446228,527.707275 
	C320.565369,526.144348 319.472412,524.786377 318.574371,523.441956 
	C294.406158,487.258636 265.303375,456.021332 228.025391,432.933044 
	C208.720413,420.976440 188.062668,412.083832 166.129791,405.053589 
	C154.685410,360.715668 152.909210,315.994232 157.947418,270.442444 
	C156.299957,264.648987 158.375732,259.541199 159.147491,254.388901 
	C160.696182,244.049683 161.490936,243.852783 171.088501,248.073196 
	C183.261703,253.426208 194.883163,259.818787 206.472794,266.287048 
	C208.060913,267.173370 209.702942,268.017517 210.922485,269.941406 
	C241.988495,289.260010 270.346680,311.343567 294.530273,338.574402 
	C322.518524,370.089294 341.946106,406.141602 352.752319,447.262390 
	C341.776733,471.162170 331.311493,495.104065 322.662720,519.805542 
	C321.798035,522.275146 321.343475,524.888428 320.446228,527.707275 
z"/>
<path fill="#FEB8B8" opacity="1.000000" stroke="none" 
	d="
M481.763580,217.910400 
	C468.992981,224.470169 455.915649,230.886032 442.793243,237.208221 
	C427.839783,244.412552 412.933777,251.701797 398.334625,259.614166 
	C395.159393,261.335052 393.338623,262.892700 393.842529,267.116364 
	C394.738129,274.622314 394.172333,282.073914 387.442261,287.712341 
	C385.706787,286.397766 384.846191,287.971344 383.778839,288.544189 
	C368.811432,296.577209 353.443848,303.421722 336.516693,306.416168 
	C323.043243,308.799683 313.677582,304.583496 307.198456,292.457886 
	C300.451447,279.830902 297.539246,266.071381 294.986511,252.180145 
	C292.646301,239.445374 292.365936,226.511856 291.211945,213.664734 
	C290.983093,211.117203 289.795349,210.039993 287.806274,208.792236 
	C278.097931,202.702164 269.309357,195.722153 266.419891,183.771683 
	C266.188171,182.813492 266.150330,181.808456 266.037231,180.424500 
	C273.791351,179.124207 277.305603,173.525421 280.321320,167.301895 
	C280.957397,165.989227 281.734772,164.646637 283.555725,164.085114 
	C295.651398,176.467194 305.473267,190.255203 310.435028,206.463425 
	C317.372559,229.125885 322.928589,252.217361 328.783020,275.199860 
	C329.897186,279.573669 331.026031,280.892090 335.294464,278.399872 
	C346.489410,271.863586 358.286346,266.258911 369.008423,259.042419 
	C378.186554,252.865112 386.713409,245.480377 394.596405,237.687042 
	C402.248108,230.122360 410.902374,225.296936 421.246613,223.097778 
	C422.218658,222.891159 423.198547,222.696854 424.145386,222.402328 
	C425.557495,221.963135 427.230408,221.675964 426.890015,219.564728 
	C426.561646,217.528046 425.182037,217.163971 423.289520,216.965897 
	C418.004913,216.412750 412.946991,218.168304 407.468018,217.405441 
	C397.006378,215.948807 389.343781,210.607224 382.247681,203.076050 
	C381.778625,202.763870 381.617676,202.604355 381.189209,202.235062 
	C380.921753,202.025284 380.990234,202.004547 380.973389,202.036118 
	C373.613831,190.571487 372.435364,178.476959 377.691772,165.886307 
	C380.291138,159.660080 381.411682,159.523178 387.296051,162.861267 
	C400.431702,170.312927 413.799530,170.843887 427.337311,163.851059 
	C430.361603,162.288910 432.676270,159.919479 435.020447,157.547989 
	C438.600922,153.925797 439.560822,153.966461 442.836426,157.996872 
	C444.100220,159.551895 445.318115,161.099457 446.979218,162.280838 
	C450.484589,164.774002 451.528931,168.341156 450.924164,172.404358 
	C449.756470,180.249481 451.136353,188.388245 447.706421,196.010330 
	C446.248230,199.250854 449.547882,200.967148 451.506500,202.899673 
	C452.333344,203.715485 453.306213,204.387344 453.959015,205.832123 
	C462.051514,212.728699 472.284454,213.939972 481.763580,217.910400 
z"/>
<path fill="#302F42" opacity="1.000000" stroke="none" 
	d="
M454.474609,206.048325 
	C453.487427,205.858826 452.916656,205.517090 452.384216,205.123474 
	C445.351074,199.924133 445.296234,199.905075 447.756348,191.886368 
	C448.942749,188.019302 449.303650,184.088699 449.236572,180.090668 
	C449.189911,177.310287 449.285797,174.619659 449.780914,171.806274 
	C450.389526,168.348267 449.862335,164.804413 445.433685,162.912781 
	C442.328308,161.586380 441.702301,157.189270 438.382874,155.159103 
	C432.735962,164.497421 423.553955,168.303452 413.242493,169.568634 
	C402.868317,170.841507 393.007599,168.825409 384.516571,162.361862 
	C382.139740,160.552597 381.369781,161.175919 380.190826,163.442230 
	C374.244659,174.872299 374.251801,186.304321 379.827362,197.827454 
	C380.405426,199.022156 380.947357,200.234314 381.231323,201.753021 
	C366.777039,191.653839 359.518433,177.114136 358.163971,160.098816 
	C355.384125,125.177361 377.926331,97.377724 412.440094,92.267227 
	C416.843964,91.615135 421.443817,91.714836 425.890961,92.129730 
	C428.806671,92.401741 429.726288,91.453171 430.873138,88.979622 
	C437.038605,75.682007 450.556091,68.537628 464.243286,71.017250 
	C477.525269,73.423447 487.827179,85.373062 488.793671,99.494179 
	C489.247864,106.130333 487.382538,111.552399 481.204498,121.553490 
	C491.113281,123.278717 501.295502,116.560867 508.453796,103.575439 
	C510.381165,115.133904 496.777954,125.601852 477.051575,127.740051 
	C486.488739,161.125854 482.568390,179.394287 460.992188,201.493927 
	C468.233948,204.190613 474.939728,201.838501 481.724030,200.318176 
	C475.199768,206.201355 467.474243,207.155273 459.182129,205.989380 
	C457.781891,205.792511 456.361359,204.648148 454.474609,206.048325 
z"/>
<path fill="#F2F2F2" opacity="1.000000" stroke="none" 
	d="
M283.942047,163.794922 
	C282.118744,167.130936 280.115845,169.967712 278.583099,173.039139 
	C276.130981,177.952866 272.795654,181.038925 266.475403,180.025467 
	C228.176117,160.590637 190.295670,141.166183 152.436371,121.700569 
	C150.378876,120.642700 148.346497,119.425179 146.567093,117.960464 
	C142.934921,114.970703 141.837662,111.222290 144.066254,106.847870 
	C152.979492,89.352409 161.925858,71.873802 170.812424,54.364822 
	C172.055222,51.916161 174.079224,50.699177 176.562622,49.977711 
	C183.405167,47.989853 190.246552,45.998066 197.478775,43.995567 
	C198.956161,46.736740 196.833557,48.600456 195.921814,50.767345 
	C193.819107,55.764622 190.710938,60.249111 188.293549,65.507690 
	C187.277344,68.342384 188.968018,69.989532 190.202271,71.667908 
	C200.236786,85.313080 210.612793,98.701538 220.782639,112.244774 
	C222.815201,114.951508 225.305817,115.491058 228.463089,115.767685 
	C241.379150,116.899330 254.328125,116.462540 267.619019,116.996262 
	C275.988983,118.468384 284.057648,117.162254 292.622284,117.857628 
	C290.656586,115.997246 288.210175,115.474121 287.280853,112.871254 
	C289.080719,106.098106 291.909363,100.171196 296.510956,94.961868 
	C300.278870,101.996033 303.006500,109.284592 304.700073,116.869484 
	C305.383118,119.928520 304.026489,123.069336 302.551239,125.897018 
	C296.931213,136.669006 292.086426,147.838562 285.891083,158.317139 
	C284.969238,159.876328 283.974091,161.467133 283.942047,163.794922 
z"/>
<path fill="#FEB8B8" opacity="1.000000" stroke="none" 
	d="
M530.061340,352.692963 
	C530.508972,376.882629 526.060120,400.129425 522.418457,423.476013 
	C520.356079,436.697906 517.586548,449.772491 514.854126,463.242676 
	C512.519775,467.505371 511.532654,471.890717 510.038635,476.079559 
	C507.297882,483.763916 503.994354,491.158508 499.084991,497.738281 
	C498.194550,498.931671 497.263245,500.127197 496.178650,501.136841 
	C493.307465,503.809631 490.014191,506.271149 485.983673,504.537781 
	C482.295959,502.951843 482.776276,499.069427 482.823608,495.765198 
	C482.983307,484.610870 487.019958,474.363708 490.500671,464.013000 
	C492.292908,458.683441 494.012238,453.221985 496.676361,448.315216 
	C502.279694,437.995056 503.785553,427.099854 502.844116,415.155945 
	C500.944580,408.819702 501.567047,402.786346 501.505310,396.324188 
	C501.341156,391.378571 501.293518,386.901581 501.453430,382.438568 
	C502.076630,365.046021 500.196228,347.708282 500.416718,330.327148 
	C500.448242,327.841858 500.371216,325.354065 501.221985,322.478821 
	C502.482056,314.364410 500.922058,306.754547 501.024384,299.120483 
	C501.242706,282.835114 499.309601,266.554779 500.945984,250.254974 
	C501.527863,244.459015 502.067688,238.661728 504.058929,233.155182 
	C505.943939,227.942276 509.977509,226.758026 514.727783,229.962051 
	C520.684509,233.979767 523.474060,240.201569 526.073914,246.562317 
	C529.635681,255.276230 530.230530,264.637726 532.494263,273.909119 
	C531.453125,276.792114 531.861572,279.698059 532.149719,282.449615 
	C534.152466,301.574646 531.930847,320.527161 530.256897,339.525421 
	C529.887024,343.723541 528.481140,348.014526 530.061340,352.692963 
z"/>
<path fill="#F2FF64" opacity="1.000000" stroke="none" 
	d="
M187.364960,65.413498 
	C190.752426,58.245605 194.219910,51.448799 197.778290,44.317646 
	C199.293198,41.268475 200.717239,38.553654 202.256729,35.500206 
	C206.924179,36.334522 211.229584,38.419849 216.312149,38.950409 
	C224.027512,42.347710 230.976654,46.597927 238.731766,49.175491 
	C233.749573,44.223789 226.903076,42.471760 221.044571,38.412392 
	C221.681915,34.431610 224.585526,32.280880 227.505463,29.857861 
	C230.299850,30.937487 232.732880,32.025436 235.514023,33.211254 
	C236.194473,33.280926 236.557953,33.215931 236.844894,33.348011 
	C252.763336,40.675259 268.309265,48.722870 283.742004,57.754478 
	C288.643494,61.306038 293.974335,63.298260 298.956024,65.946655 
	C306.179901,69.787056 307.376434,73.243805 303.829742,80.414772 
	C301.548737,85.026703 299.270721,89.640106 296.944458,94.614067 
	C293.229248,100.016220 291.191925,105.926277 288.092712,111.658585 
	C287.109406,113.439758 287.582764,115.624397 285.204498,116.566597 
	C266.259216,116.361641 247.691147,115.620895 229.113235,115.284203 
	C226.190018,115.231216 223.573425,114.866676 221.625702,112.269119 
	C210.472763,97.395203 199.230789,82.587967 188.228790,67.601181 
	C187.832962,67.061989 187.598053,66.436890 187.364960,65.413498 
z"/>
<path fill="#F2F2F2" opacity="1.000000" stroke="none" 
	d="
M623.745239,141.753036 
	C632.254761,133.046005 640.899475,125.093437 651.253479,119.159683 
	C668.370789,109.349930 684.896423,106.986786 703.270691,117.746895 
	C725.348816,130.676041 749.098938,140.501251 773.425964,148.687454 
	C774.649841,149.099304 776.056396,149.140488 777.558899,151.160919 
	C723.256897,150.387100 669.599854,151.528351 615.424438,152.209946 
	C617.585571,147.699936 620.563171,144.870483 623.745239,141.753036 
z"/>
<path fill="#F2F2F2" opacity="1.000000" stroke="none" 
	d="
M891.000000,351.006104 
	C846.323975,350.394836 802.159851,351.945618 757.258057,352.117615 
	C762.580200,344.434448 768.591980,338.330139 775.009888,332.722473 
	C782.247131,326.398956 790.018311,320.789124 798.742432,316.472717 
	C813.995300,308.926208 828.783142,308.819946 843.833984,317.169128 
	C861.135376,326.766815 879.151611,334.913208 897.621826,342.032410 
	C905.454468,345.051453 913.274536,348.103302 921.026978,351.639740 
	C911.155457,350.585205 901.323792,351.042847 891.000000,351.006104 
z"/>
<path fill="#1A191A" opacity="1.000000" stroke="none" 
	d="
M1167.875366,612.937134 
	C1136.423218,612.937134 1105.452637,612.940002 1074.481934,612.934875 
	C1067.567993,612.933777 1067.073120,612.435303 1067.064697,605.552551 
	C1067.056274,598.559204 1067.141846,591.564575 1067.032349,584.572937 
	C1066.973145,580.788147 1068.647705,579.053589 1072.392090,579.055298 
	C1105.860474,579.070740 1139.328735,579.072266 1172.797119,579.052917 
	C1176.331665,579.050842 1177.971680,580.706543 1177.949341,584.233398 
	C1177.904053,591.393066 1177.945435,598.553101 1177.934570,605.713013 
	C1177.924561,612.293457 1177.319092,612.901794 1170.854492,612.936462 
	C1170.021973,612.940918 1169.189331,612.937134 1167.875366,612.937134 
z"/>
<path fill="#F1F2F2" opacity="1.000000" stroke="none" 
	d="
M211.523758,270.219238 
	C196.478958,262.111938 181.843201,254.058426 166.444824,247.451828 
	C162.649719,245.823547 161.385757,246.485214 160.942627,250.555267 
	C160.262192,256.804901 159.098251,263.001892 158.013519,269.615967 
	C143.919479,270.010712 129.951416,270.010712 115.247665,270.010712 
	C121.754295,261.224304 128.899582,254.019775 136.891479,247.603287 
	C146.647614,239.770340 156.783356,232.657776 169.264328,229.764130 
	C180.065475,227.259949 190.408661,228.767227 199.978394,234.075058 
	C216.433731,243.201981 233.425903,251.124207 250.881042,258.106659 
	C258.788910,261.269928 266.643341,264.566650 275.153687,268.062347 
	C272.875183,269.399902 271.028564,268.979767 269.311920,268.983612 
	C252.653534,269.020874 235.994934,269.033203 219.336639,268.977203 
	C216.801178,268.968689 214.368576,269.241913 211.523758,270.219238 
z"/>
<path fill="#444259" opacity="1.000000" stroke="none" 
	d="
M670.547058,406.603729 
	C670.494324,407.021820 670.425720,407.014130 670.412354,407.008759 
	C669.677063,404.866272 670.184143,402.852142 671.084656,400.486755 
	C671.273560,399.796204 671.454651,399.533234 671.880371,399.154297 
	C672.060608,398.994049 671.998047,399.000916 672.007751,399.030884 
	C674.147217,395.876770 673.942566,392.342407 673.691406,388.449585 
	C676.110962,374.517914 678.322937,360.908020 679.277466,346.774200 
	C688.957031,359.196960 687.411743,372.768250 682.704895,387.054779 
	C685.432312,383.938385 688.155701,380.818512 690.888306,377.706635 
	C693.632324,374.581696 696.394409,371.472534 699.130249,368.340485 
	C700.224609,367.087677 701.139038,365.647339 702.361389,364.542328 
	C706.489563,360.810333 708.632324,357.516876 705.293823,351.342255 
	C701.890930,345.048645 705.725220,337.005371 711.881836,333.345215 
	C718.298462,329.530487 726.291504,330.740845 731.455811,336.309235 
	C736.116150,341.334198 736.785583,349.551788 733.000488,355.270142 
	C728.837524,361.559326 721.269348,363.991608 714.124084,361.248993 
	C712.302246,360.549713 710.839539,359.304718 708.940430,361.538452 
	C696.234253,376.483734 683.395508,391.316437 670.547058,406.603729 
z"/>
<path fill="#F2F2F0" opacity="1.000000" stroke="none" 
	d="
M283.998871,57.617554 
	C267.718628,50.699215 252.199158,41.873569 236.077728,33.559433 
	C244.481003,29.127975 253.688187,26.670965 263.039856,25.156740 
	C268.831543,24.218954 273.532318,27.760872 275.670044,32.896496 
	C278.956909,40.792789 281.266479,49.095879 283.998871,57.617554 
z"/>
<path fill="#5BB698" opacity="1.000000" stroke="none" 
	d="
M227.903702,29.462372 
	C225.989868,32.543575 224.359818,35.454708 221.234680,37.475559 
	C220.094604,39.705746 218.428635,39.955387 216.161346,39.739120 
	C211.261490,39.122749 206.461884,39.128922 202.633820,35.329414 
	C195.984680,26.913683 196.824402,17.247303 204.387421,11.963773 
	C211.832245,6.762818 221.326523,8.540650 226.185623,16.142939 
	C228.741409,20.141577 229.187897,24.515545 227.903702,29.462372 
z"/>
<path fill="#FF6987" opacity="1.000000" stroke="none" 
	d="
M726.408447,274.850769 
	C727.320068,281.325867 724.507202,285.888794 719.309692,286.936218 
	C714.791199,287.846771 709.354370,284.789764 708.119019,280.644012 
	C706.655823,275.733185 709.332520,270.138855 713.986450,268.381317 
	C719.016846,266.481598 723.459595,268.683197 726.408447,274.850769 
z"/>
<path fill="#5A5669" opacity="1.000000" stroke="none" 
	d="
M603.007874,185.677704 
	C607.601074,185.943604 612.904053,183.931671 615.494629,186.450027 
	C618.106750,188.989258 616.234680,194.316376 616.262573,198.410995 
	C616.291748,202.696884 618.131042,208.285477 615.557617,210.940765 
	C612.768311,213.818832 607.096497,211.817139 602.694580,211.865616 
	C590.086487,212.004486 590.085510,211.914505 590.085510,199.380676 
	C590.085510,196.559296 590.417297,193.689133 590.011353,190.927429 
	C589.322998,186.244522 591.395386,185.132431 595.553162,185.628494 
	C597.843994,185.901825 600.194275,185.677490 603.007874,185.677704 
z"/>
<path fill="#534F63" opacity="1.000000" stroke="none" 
	d="
M94.610886,275.451172 
	C102.382629,275.029602 107.823441,278.963440 108.840576,285.361298 
	C109.773682,291.230621 105.814392,297.482117 100.255493,298.916626 
	C94.041664,300.520203 87.958679,297.401520 85.685844,291.446960 
	C83.087425,284.639404 86.454025,278.373474 94.610886,275.451172 
z"/>
<path fill="#302F42" opacity="1.000000" stroke="none" 
	d="
M380.948425,202.299438 
	C381.237244,202.109665 381.552765,202.194046 381.903931,202.600906 
	C381.618103,202.806793 381.296570,202.690201 380.948425,202.299438 
z"/>
<path fill="#F1F2F2" opacity="1.000000" stroke="none" 
	d="
M277.463593,268.448853 
	C277.521637,268.414032 277.405548,268.483643 277.463593,268.448853 
z"/>
<path fill="#FDFCFC" opacity="1.000000" stroke="none" 
	d="
M501.034332,322.283386 
	C502.046173,322.978607 501.984528,324.160034 501.984039,325.314056 
	C501.974213,348.649780 503.607422,371.963989 502.889038,395.794769 
	C501.751862,398.899231 501.618073,402.016418 498.704834,403.927185 
	C493.355347,392.779358 487.943329,381.815063 481.362030,371.467407 
	C480.339172,369.859253 479.968781,368.562500 480.779083,366.512573 
	C483.175903,360.448883 486.593018,354.535156 484.816620,347.497070 
	C484.604126,346.655121 485.625366,345.407654 486.249451,344.463593 
	C491.084900,337.148895 495.963287,329.862579 501.034332,322.283386 
z"/>
<path fill="#F2FF64" opacity="1.000000" stroke="none" 
	d="
M498.480652,404.276855 
	C499.704285,401.507843 501.039795,399.065369 502.626068,396.451874 
	C502.893219,402.123016 502.909607,407.965179 502.893921,414.237152 
	C501.438751,411.312408 500.015656,407.957886 498.480652,404.276855 
z"/>
<path fill="#F3F5E0" opacity="1.000000" stroke="none" 
	d="
M673.588318,388.401733 
	C673.979431,391.722656 676.667358,395.598846 672.349731,398.910278 
	C671.403992,395.466064 672.964844,392.151337 673.588318,388.401733 
z"/>
<path fill="#F3F5E0" opacity="1.000000" stroke="none" 
	d="
M671.801270,399.063965 
	C671.922974,399.303589 671.785339,399.613129 671.402222,400.013031 
	C671.285156,399.780243 671.413574,399.457092 671.801270,399.063965 
z"/>
<path fill="#DDE75F" opacity="1.000000" stroke="none" 
	d="
M187.067871,65.330231 
	C194.784622,73.438789 200.877518,82.919090 207.834686,91.735977 
	C212.748932,97.963821 217.589722,104.268715 222.079437,110.802979 
	C223.860443,113.395035 225.781952,114.007553 228.668869,114.056541 
	C246.670624,114.362007 264.669586,114.834930 282.668762,115.280205 
	C283.303436,115.295906 283.930878,115.603836 284.900513,115.877098 
	C285.933838,118.760315 283.932281,118.462875 282.317169,118.470100 
	C277.866760,118.489975 273.415863,118.526108 268.504089,118.312042 
	C254.299149,117.785629 240.557083,117.279182 226.810791,117.100891 
	C223.778000,117.061554 221.875870,115.991806 220.186127,113.732590 
	C209.474258,99.410568 198.709915,85.127808 187.995346,70.807785 
	C186.865540,69.297813 184.990982,67.837296 187.067871,65.330231 
z"/>
<path fill="#F3F5E0" opacity="1.000000" stroke="none" 
	d="
M268.356689,118.434036 
	C272.255646,118.160271 276.470062,118.206718 280.680634,118.100708 
	C282.178650,118.063011 284.017761,118.789101 285.105682,116.392868 
	C285.995667,114.779572 286.752014,113.580490 287.753296,112.188889 
	C289.400757,115.772438 293.776947,115.743851 296.781403,118.694130 
	C286.967285,118.694130 277.818970,118.694130 268.356689,118.434036 
z"/>
<path fill="#F3F5E0" opacity="1.000000" stroke="none" 
	d="
M261.046997,94.962921 
	C266.130310,97.537956 270.888336,99.936943 275.609039,102.407204 
	C276.695251,102.975624 278.597717,103.397545 277.712006,105.132286 
	C276.947510,106.629608 275.599060,105.341751 274.693176,104.879295 
	C253.342285,93.979301 232.014801,83.033463 210.685745,72.090706 
	C206.391785,69.887726 202.104736,67.671112 197.823883,65.442787 
	C196.795227,64.907341 195.455765,64.311752 196.392288,62.878471 
	C197.130630,61.748497 198.215454,62.646072 199.038193,63.067715 
	C215.775604,71.645416 232.501785,80.245094 249.226089,88.848381 
	C253.061279,90.821274 256.881226,92.823845 261.046997,94.962921 
z"/>
<path fill="#F3F5E0" opacity="1.000000" stroke="none" 
	d="
M231.654541,73.353050 
	C221.870819,68.288025 212.396851,63.435810 202.970154,58.493465 
	C201.834900,57.898266 199.421127,57.609142 200.577179,55.602314 
	C201.430542,54.120937 203.022995,55.602970 204.092239,56.153461 
	C219.172699,63.917568 234.201126,71.782700 249.282898,79.544266 
	C259.035400,84.563232 268.865234,89.431770 278.629517,94.428162 
	C279.845093,95.050171 282.289429,95.517715 281.518799,97.123817 
	C280.454529,99.341904 278.584930,97.302933 277.322784,96.665375 
	C262.178406,89.015152 247.085175,81.263649 231.654541,73.353050 
z"/>
<path fill="#F3F5E0" opacity="1.000000" stroke="none" 
	d="
M284.712708,90.829712 
	C258.359131,77.482155 232.349594,64.068771 206.350403,50.635303 
	C205.239441,50.061283 203.318146,49.482979 204.322723,47.898842 
	C205.282547,46.385292 206.715530,47.977943 207.759430,48.509544 
	C220.358063,54.925392 232.916855,61.419388 245.493195,67.879066 
	C257.613342,74.104416 269.761047,80.276649 281.843292,86.574554 
	C283.422546,87.397728 286.344208,87.577232 284.712708,90.829712 
z"/>
<path fill="#F3F5E0" opacity="1.000000" stroke="none" 
	d="
M216.152924,39.997902 
	C217.325836,39.242134 218.847092,38.611008 220.717010,37.865601 
	C227.000107,40.678486 232.921967,43.631561 238.876663,46.516891 
	C240.644913,47.373703 241.460571,48.293701 240.386276,50.358986 
	C239.238922,52.564674 237.907043,51.387520 236.707230,50.765308 
	C229.949570,47.260807 223.232300,43.678394 216.152924,39.997902 
z"/>
<path fill="#C9C6B6" opacity="1.000000" stroke="none" 
	d="
M1081.683838,598.517700 
	C1080.835205,596.076660 1081.990234,596.922363 1082.702026,597.549377 
	C1084.368042,599.016846 1086.216675,599.169189 1087.453857,597.459961 
	C1088.519531,595.987793 1088.598511,593.806641 1087.284424,592.341980 
	C1085.772095,590.656433 1084.012451,591.344910 1082.455688,592.670227 
	C1082.181030,592.903992 1081.683716,592.876038 1080.901489,593.060303 
	C1082.271851,589.865295 1084.981812,588.821655 1086.916260,590.338318 
	C1089.384521,592.273621 1091.725464,592.741516 1094.628296,593.232544 
	C1096.636475,593.572266 1097.961792,594.744202 1100.149292,593.135864 
	C1102.067139,591.725830 1103.268677,594.364075 1104.756104,595.277710 
	C1104.945801,592.552917 1107.018677,592.983215 1108.756958,592.931335 
	C1109.696899,592.903259 1110.405518,593.295410 1110.127075,594.413574 
	C1109.567261,596.661987 1108.991211,594.379028 1108.561523,594.447449 
	C1105.346558,594.959412 1107.534058,598.080750 1106.221191,599.573608 
	C1102.939575,595.247864 1095.540405,596.726929 1091.552002,602.518066 
	C1089.877686,601.403748 1091.377197,599.325928 1089.960693,597.798828 
	C1087.554688,599.552429 1084.965942,601.665405 1081.683838,598.517700 
z"/>
<path fill="#C9C6B6" opacity="1.000000" stroke="none" 
	d="
M1158.489746,597.650818 
	C1157.858276,598.518738 1157.446167,599.482910 1157.066528,599.470215 
	C1153.439209,599.349243 1149.838867,599.136047 1146.212646,599.795349 
	C1144.895996,600.034729 1144.919312,598.597107 1144.906860,597.634949 
	C1144.875610,595.205078 1144.896484,592.774536 1144.896484,589.688477 
	C1147.997070,592.684082 1150.512329,595.428589 1154.662964,593.057739 
	C1155.264160,592.714233 1156.480713,593.447571 1157.744263,593.893555 
	C1158.893311,595.045410 1159.065186,596.117493 1158.489746,597.650818 
z"/>
<path fill="#C9C6B6" opacity="1.000000" stroke="none" 
	d="
M1126.084473,595.928101 
	C1128.087280,592.103882 1123.818481,596.430725 1124.236328,594.279541 
	C1128.286499,591.991394 1128.286499,591.991394 1129.908569,599.731323 
	C1125.158325,600.298401 1120.980225,599.834229 1118.498291,594.699524 
	C1121.334229,592.750671 1122.883667,598.671814 1126.084473,595.928101 
z"/>
<path fill="#C9C6B6" opacity="1.000000" stroke="none" 
	d="
M1143.227905,599.475708 
	C1140.222168,600.674866 1137.811157,599.999817 1137.385864,596.952454 
	C1137.024902,594.365723 1138.678833,592.730957 1141.602539,592.849182 
	C1142.742432,592.895264 1142.668457,591.837341 1142.959473,590.749084 
	C1143.802979,591.833801 1143.353760,593.316895 1143.474609,595.091797 
	C1143.320435,595.935120 1142.952148,596.145020 1142.467407,596.269592 
	C1142.101196,596.363647 1141.570679,595.976868 1141.377686,596.613220 
	C1141.838867,596.746643 1142.318115,596.707397 1143.060913,596.949951 
	C1143.513306,597.812317 1143.487915,598.494873 1143.227905,599.475708 
z"/>
<path fill="#C9C6B6" opacity="1.000000" stroke="none" 
	d="
M1161.859009,594.267090 
	C1162.552734,593.825562 1162.887207,593.356323 1163.311768,593.251526 
	C1164.246460,593.020752 1164.566162,593.675354 1164.009033,594.278015 
	C1162.128418,596.311951 1163.708496,597.857483 1165.155396,600.318787 
	C1162.775757,598.903076 1160.984619,598.752014 1159.118164,599.374634 
	C1159.605469,597.361755 1159.493042,595.292542 1161.859009,594.267090 
z"/>
<path fill="#302F42" opacity="1.000000" stroke="none" 
	d="
M1161.768311,594.078491 
	C1161.317993,595.659668 1160.458618,597.189758 1159.302002,598.880432 
	C1158.911987,598.763489 1158.775879,598.509033 1158.426025,598.142761 
	C1158.205200,596.965942 1158.155029,595.923950 1158.090454,594.493286 
	C1159.170410,594.078796 1160.264771,594.053040 1161.768311,594.078491 
z"/>
<path fill="#F3F5E0" opacity="1.000000" stroke="none" 
	d="
M1130.896851,598.531616 
	C1131.024780,595.624329 1129.764404,592.012451 1135.747803,593.594360 
	C1131.640625,594.180969 1132.137573,596.695251 1132.035645,598.931396 
	C1132.029297,599.070251 1131.948730,599.239441 1131.846802,599.334534 
	C1131.273926,599.868774 1131.120117,599.334900 1130.896851,598.531616 
z"/>
<path fill="#DDE75F" opacity="1.000000" stroke="none" 
	d="
M1143.438721,599.668701 
	C1143.031738,599.077332 1143.025269,598.382446 1142.998779,597.340576 
	C1142.835205,596.829041 1142.691650,596.664490 1142.763428,596.253174 
	C1143.014282,594.418823 1143.049805,592.831238 1143.103394,590.844543 
	C1145.053589,593.352112 1143.847046,596.505920 1143.438721,599.668701 
z"/>
<path fill="#F2F2F2" opacity="1.000000" stroke="none" 
	d="
M204.834824,24.089520 
	C204.310349,22.201342 202.735031,20.102356 204.743927,19.346357 
	C207.436493,18.333078 207.341675,21.392202 207.713608,22.846094 
	C208.453888,25.739849 209.769928,26.077892 212.358292,25.078863 
	C215.758728,23.766392 219.322144,22.881882 222.781860,21.713741 
	C223.794632,21.371782 224.602890,20.906181 225.182327,22.270805 
	C225.814194,23.758905 225.034897,24.477781 223.804276,24.871666 
	C218.753937,26.488108 213.761261,28.380581 208.605484,29.541264 
	C204.491302,30.467468 206.487411,25.978205 204.834824,24.089520 
z"/>
<path fill="#FAFAFB" opacity="1.000000" stroke="none" 
	d="
M600.124390,209.741196 
	C598.644592,209.741119 597.626831,209.618011 596.648804,209.763153 
	C593.140015,210.283859 591.968628,208.875504 592.187866,205.351349 
	C592.476929,200.704697 592.373718,196.022614 592.214050,191.363480 
	C592.127625,188.840637 592.821716,187.758255 595.540161,187.850067 
	C600.698669,188.024277 605.870117,188.002701 611.030334,187.856186 
	C613.443237,187.787674 614.205994,188.642120 614.142151,191.007370 
	C614.002808,196.168015 613.970459,201.339523 614.151184,206.497589 
	C614.248169,209.267075 613.076904,209.901733 610.598267,209.780579 
	C607.274353,209.618103 603.936462,209.740921 600.124390,209.741196 
z"/>
<path fill="#FAFAFB" opacity="1.000000" stroke="none" 
	d="
M87.455536,290.189545 
	C86.799866,282.784302 89.789444,278.388184 95.743134,277.450958 
	C100.658783,276.677155 105.416008,280.244965 106.508965,285.525116 
	C107.462387,290.131165 104.714378,294.920105 100.183754,296.547974 
	C95.333878,298.290558 90.985924,296.227142 87.455536,290.189545 
z"/>
<path fill="#302F42" opacity="1.000000" stroke="none" 
	d="
M1092.236328,596.154968 
	C1093.025269,594.591431 1093.910889,593.413269 1095.278198,595.018005 
	C1096.286621,596.201355 1096.155029,597.708618 1094.752319,598.410278 
	C1093.076294,599.248779 1092.490356,597.914062 1092.236328,596.154968 
z"/>
<path fill="#302F41" opacity="1.000000" stroke="none" 
	d="
M1156.882324,596.849426 
	C1156.058594,598.821350 1155.160645,599.641296 1153.763794,597.725159 
	C1152.920410,596.568176 1153.285889,595.393188 1154.200439,594.749451 
	C1156.230103,593.320679 1156.546265,595.073914 1156.882324,596.849426 
z"/>
<path fill="#302F41" opacity="1.000000" stroke="none" 
	d="
M1149.267334,594.758789 
	C1150.176025,596.517395 1150.320923,597.925049 1148.516113,598.659180 
	C1147.487793,599.077393 1146.991943,598.231384 1146.885620,597.430298 
	C1146.679443,595.875671 1146.216797,593.975220 1149.267334,594.758789 
z"/>
<path fill="#302F41" opacity="1.000000" stroke="none" 
	d="
M1142.718994,595.794861 
	C1142.978638,596.006409 1142.979248,596.499756 1142.979004,596.746704 
	C1141.946045,597.591370 1141.496094,600.049072 1139.671875,598.108704 
	C1138.802856,597.184204 1138.786743,596.018555 1139.566528,595.017273 
	C1140.833618,593.390015 1141.700439,594.332031 1142.718994,595.794861 
z"/>
</svg>