<svg xmlns="http://www.w3.org/2000/svg" width="22" height="22" viewBox="0 0 24 24" fill="none">
<path d="M11.962 21C10.736 21 9.57867 20.7633 8.49 20.29C7.402 19.816 6.452 19.1727 5.64 18.36C4.82733 17.548 4.184 16.5947 3.71 15.5C3.23667 14.4053 3 13.2387 3 12C3 10.7447 3.242 9.56967 3.726 8.475C4.21 7.38033 4.86967 6.42767 5.705 5.617C6.54033 4.807 7.52033 4.16833 8.645 3.701C9.76833 3.23367 10.9657 3 12.237 3C13.4037 3 14.5147 3.197 15.57 3.591C16.6253 3.98567 17.554 4.53233 18.356 5.231C19.158 5.931 19.799 6.76433 20.279 7.731C20.759 8.699 20.999 9.754 20.999 10.896C20.999 12.4407 20.5533 13.6773 19.662 14.606C18.772 15.5353 17.5513 16 16 16H14.227C13.8077 16 13.4567 16.1443 13.174 16.433C12.8913 16.721 12.75 17.069 12.75 17.477C12.75 17.895 12.875 18.2497 13.125 18.541C13.375 18.833 13.5 19.1693 13.5 19.55C13.5 20.0367 13.3637 20.4 13.091 20.64C12.819 20.88 12.4433 21 11.962 21ZM6.5 12.5C6.78 12.5 7.01667 12.4033 7.21 12.21C7.40333 12.0167 7.5 11.78 7.5 11.5C7.5 11.22 7.40333 10.9833 7.21 10.79C7.01667 10.5967 6.78 10.5 6.5 10.5C6.22 10.5 5.98333 10.5967 5.79 10.79C5.59667 10.9833 5.5 11.22 5.5 11.5C5.5 11.78 5.59667 12.0167 5.79 12.21C5.98333 12.4033 6.22 12.5 6.5 12.5ZM9.5 8.5C9.78 8.5 10.0167 8.40333 10.21 8.21C10.4033 8.01667 10.5 7.78 10.5 7.5C10.5 7.22 10.4033 6.98333 10.21 6.79C10.0167 6.59667 9.78 6.5 9.5 6.5C9.22 6.5 8.98333 6.59667 8.79 6.79C8.59667 6.98333 8.5 7.22 8.5 7.5C8.5 7.78 8.59667 8.01667 8.79 8.21C8.98333 8.40333 9.22 8.5 9.5 8.5ZM14.5 8.5C14.78 8.5 15.0167 8.40333 15.21 8.21C15.4033 8.01667 15.5 7.78 15.5 7.5C15.5 7.22 15.4033 6.98333 15.21 6.79C15.0167 6.59667 14.78 6.5 14.5 6.5C14.22 6.5 13.9833 6.59667 13.79 6.79C13.5967 6.98333 13.5 7.22 13.5 7.5C13.5 7.78 13.5967 8.01667 13.79 8.21C13.9833 8.40333 14.22 8.5 14.5 8.5ZM17.5 12.5C17.78 12.5 18.0167 12.4033 18.21 12.21C18.4033 12.0167 18.5 11.78 18.5 11.5C18.5 11.22 18.4033 10.9833 18.21 10.79C18.0167 10.5967 17.78 10.5 17.5 10.5C17.22 10.5 16.9833 10.5967 16.79 10.79C16.5967 10.9833 16.5 11.22 16.5 11.5C16.5 11.78 16.5967 12.0167 16.79 12.21C16.9833 12.4033 17.22 12.5 17.5 12.5ZM11.962 20C12.1373 20 12.2707 19.9617 12.362 19.885C12.454 19.8077 12.5 19.696 12.5 19.55C12.5 19.3167 12.375 19.0673 12.125 18.802C11.875 18.5367 11.75 18.1 11.75 17.492C11.75 16.7667 11.9917 16.17 12.475 15.702C12.9583 15.234 13.55 15 14.25 15H16C17.2533 15 18.2333 14.631 18.94 13.893C19.6467 13.1557 20 12.1567 20 10.896C20 8.86667 19.2197 7.21 17.659 5.926C16.0977 4.642 14.291 4 12.239 4C9.933 4 7.98333 4.775 6.39 6.325C4.79667 7.875 4 9.76667 4 12C4 14.2167 4.77933 16.1043 6.338 17.663C7.89667 19.2217 9.77133 20.0007 11.962 20Z" fill="black"/>
</svg>