<svg xmlns="http://www.w3.org/2000/svg" width="17" height="17" viewBox="0 0 184 184" fill="none">
<path d="M184 92C184 93.0609 183.579 94.0783 182.828 94.8284C182.078 95.5786 181.061 96 180 96H96V180C96 181.061 95.5786 182.078 94.8284 182.828C94.0783 183.579 93.0609 184 92 184C90.9391 184 89.9217 183.579 89.1716 182.828C88.4214 182.078 88 181.061 88 180V96H4C2.93913 96 1.92172 95.5786 1.17157 94.8284C0.421428 94.0783 0 93.0609 0 92C0 90.9391 0.421428 89.9217 1.17157 89.1716C1.92172 88.4214 2.93913 88 4 88H88V4C88 2.93913 88.4214 1.92172 89.1716 1.17157C89.9217 0.421428 90.9391 0 92 0C93.0609 0 94.0783 0.421428 94.8284 1.17157C95.5786 1.92172 96 2.93913 96 4V88H180C181.061 88 182.078 88.4214 182.828 89.1716C183.579 89.9217 184 90.9391 184 92Z" fill="black" fill-opacity="0.7"/>
</svg>