<svg xmlns="http://www.w3.org/2000/svg" width="27" height="28" viewBox="0 0 27 28" fill="none">
  <path d="M16.7895 8.32878H16.8026M12.1842 25.4336H4.94737C3.90046 25.4336 2.89643 25.0177 2.15616 24.2775C1.41588 23.5372 1 22.5332 1 21.4863V5.69727C1 4.65039 1.41588 3.64638 2.15616 2.90613C2.89643 2.16587 3.90046 1.75 4.94737 1.75H20.7368C21.7837 1.75 22.7878 2.16587 23.5281 2.90613C24.2683 3.64638 24.6842 4.65039 24.6842 5.69727V12.9339" stroke="black" stroke-width="2" stroke-linecap="round" stroke-linejoin="round"/>
  <path d="M23.6316 24.3817L26 26.75M1 18.8555L7.57895 12.2767C8.8 11.1018 10.3053 11.1018 11.5263 12.2767L14.1579 14.9082M16.7895 21.487C16.7895 22.5339 17.2054 23.5379 17.9456 24.2782C18.6859 25.0184 19.6899 25.4343 20.7368 25.4343C21.7837 25.4343 22.7878 25.0184 23.5281 24.2782C24.2683 23.5379 24.6842 22.5339 24.6842 21.487C24.6842 20.4401 24.2683 19.4361 23.5281 18.6959C22.7878 17.9556 21.7837 17.5398 20.7368 17.5398C19.6899 17.5398 18.6859 17.9556 17.9456 18.6959C17.2054 19.4361 16.7895 20.4401 16.7895 21.487Z" stroke="black" stroke-width="2" stroke-linecap="round" stroke-linejoin="round"/>
</svg>