<svg xmlns="http://www.w3.org/2000/svg" width="17" height="17" viewBox="0 0 17 17" fill="none">
  <path d="M16.3125 1.46875V4.59375C16.3125 4.80095 16.2302 4.99966 16.0837 5.14618C15.9372 5.29269 15.7385 5.375 15.5312 5.375C15.324 5.375 15.1253 5.29269 14.9788 5.14618C14.8323 4.99966 14.75 4.80095 14.75 4.59375V2.25H9.28125V14.75H11.625C11.8322 14.75 12.0309 14.8323 12.1774 14.9788C12.3239 15.1253 12.4062 15.324 12.4062 15.5312C12.4062 15.7385 12.3239 15.9372 12.1774 16.0837C12.0309 16.2302 11.8322 16.3125 11.625 16.3125H5.375C5.1678 16.3125 4.96909 16.2302 4.82257 16.0837C4.67606 15.9372 4.59375 15.7385 4.59375 15.5312C4.59375 15.324 4.67606 15.1253 4.82257 14.9788C4.96909 14.8323 5.1678 14.75 5.375 14.75H7.71875V2.25H2.25V4.59375C2.25 4.80095 2.16769 4.99966 2.02118 5.14618C1.87466 5.29269 1.67595 5.375 1.46875 5.375C1.26155 5.375 1.06284 5.29269 0.916323 5.14618C0.76981 4.99966 0.6875 4.80095 0.6875 4.59375V1.46875C0.6875 1.26155 0.76981 1.06284 0.916323 0.916323C1.06284 0.76981 1.26155 0.6875 1.46875 0.6875H15.5312C15.7385 0.6875 15.9372 0.76981 16.0837 0.916323C16.2302 1.06284 16.3125 1.26155 16.3125 1.46875Z" fill="black"/>
</svg>