<svg xmlns="http://www.w3.org/2000/svg" width="43" height="43" viewBox="0 0 43 43" fill="none">
<path d="M8.95831 10.7503C8.95831 9.79997 9.33584 8.88853 10.0078 8.21653C10.6799 7.54452 11.5913 7.16699 12.5416 7.16699H30.4583C31.4087 7.16699 32.3201 7.54452 32.9921 8.21653C33.6641 8.88853 34.0416 9.79997 34.0416 10.7503V12.542C34.0416 13.0172 33.8529 13.4729 33.5169 13.8089C33.1809 14.1449 32.7252 14.3337 32.25 14.3337C31.7748 14.3337 31.3191 14.1449 30.9831 13.8089C30.6471 13.4729 30.4583 13.0172 30.4583 12.542V10.7503H23.2916V32.2503H25.0833C25.5585 32.2503 26.0142 32.4391 26.3502 32.7751C26.6862 33.1111 26.875 33.5668 26.875 34.042C26.875 34.5172 26.6862 34.9729 26.3502 35.3089C26.0142 35.6449 25.5585 35.8337 25.0833 35.8337H17.9166C17.4415 35.8337 16.9858 35.6449 16.6497 35.3089C16.3137 34.9729 16.125 34.5172 16.125 34.042C16.125 33.5668 16.3137 33.1111 16.6497 32.7751C16.9858 32.4391 17.4415 32.2503 17.9166 32.2503H19.7083V10.7503H12.5416V12.542C12.5416 13.0172 12.3529 13.4729 12.0169 13.8089C11.6809 14.1449 11.2252 14.3337 10.75 14.3337C10.2748 14.3337 9.81908 14.1449 9.48308 13.8089C9.14708 13.4729 8.95831 13.0172 8.95831 12.542V10.7503Z" fill="black"/>
</svg>