<svg xmlns="http://www.w3.org/2000/svg" width="16" height="16" viewBox="0 0 36 36" fill="none">
<path d="M16.75 26.9425V5.3175L10.925 11.1425L9.155 9.345L18 0.5L26.845 9.345L25.0775 11.145L19.25 5.3175V26.9425H16.75ZM4.5375 35.5C3.3875 35.5 2.4275 35.115 1.6575 34.345C0.885833 33.5733 0.5 32.6125 0.5 31.4625V25.405H3V31.4625C3 31.8458 3.16 32.1983 3.48 32.52C3.80167 32.84 4.15417 33 4.5375 33H31.4625C31.8458 33 32.1983 32.84 32.52 32.52C32.84 32.1983 33 31.8458 33 31.4625V25.405H35.5V31.4625C35.5 32.6125 35.115 33.5725 34.345 34.3425C33.5733 35.1142 32.6125 35.5 31.4625 35.5H4.5375Z" fill="white"/>
</svg>