<svg xmlns="http://www.w3.org/2000/svg" width="160" height="160" viewBox="0 0 160 160" fill="none">
<path d="M157.66 146.34C158.403 147.083 158.993 147.966 159.395 148.937C159.797 149.908 160.005 150.949 160.005 152C160.005 153.051 159.797 154.092 159.395 155.063C158.993 156.034 158.403 156.917 157.66 157.66C156.917 158.403 156.034 158.993 155.063 159.395C154.092 159.797 153.051 160.005 152 160.005C150.949 160.005 149.908 159.797 148.937 159.395C147.966 158.993 147.083 158.403 146.34 157.66L80.0001 91.3101L13.6601 157.66C12.1589 159.161 10.123 160.005 8.00005 160.005C5.87714 160.005 3.84118 159.161 2.34005 157.66C0.838928 156.159 -0.00439449 154.123 -0.00439453 152C-0.00439457 149.877 0.838928 147.841 2.34005 146.34L68.6901 80.0001L2.34005 13.6601C0.838928 12.1589 -0.00439455 10.123 -0.00439453 8.00005C-0.00439452 5.87714 0.838928 3.84118 2.34005 2.34005C3.84118 0.838928 5.87714 -0.00439452 8.00005 -0.00439453C10.123 -0.00439455 12.1589 0.838928 13.6601 2.34005L80.0001 68.6901L146.34 2.34005C147.841 0.838928 149.877 -0.00439457 152 -0.00439453C154.123 -0.00439449 156.159 0.838928 157.66 2.34005C159.161 3.84118 160.005 5.87714 160.005 8.00005C160.005 10.123 159.161 12.1589 157.66 13.6601L91.3101 80.0001L157.66 146.34Z" fill="#F8F8F8"/>
</svg>