<?xml version="1.0" encoding="UTF-8"?>
<svg id="_레이어_1" data-name="레이어 1" xmlns="http://www.w3.org/2000/svg" viewBox="0 0 704.13 742.24">
  <defs>
    <style>
      .cls-1 {
        fill: none;
        stroke-width: 0px;
      }
    </style>
  </defs>
  <path class="cls-1" d="M462.13,663c39.35-18.8,46.41-24.1,46-30-1.03-14.91-49.11-23.8-90-29,26.33-22.33,52.67-44.67,79-67l165,30c14-45.67,28-91.33,42-137"/>
  <path class="cls-1" d="M557.13,0c-19.7.1-73.22,2.98-126,40,0,0-58.27,40.87-83,112-10.89,31.33-11,60-11,60-.04,10.05.85,14.6,1,19,1.49,43.29-67.6,90.89-129,112-25.24,8.68-82.26,28.29-103,4-9.81-11.49-10.92-32.12-3-38,14.05-10.43,65.64,18.76,63,44-1.64,15.66-23.63,24.94-38,31-8.44,3.56-38.55,15.73-70.84,3.21-10.82-4.2-24.8-9.62-29.16-22.21-6.73-19.41,12.56-46.84,36-55,30.01-10.45,58.64,13.51,64,18,8.07,6.76,13.11,13.86,16,18,6.72,9.62,18.71,26.77,16,40-4.32,21.1-46.82,36.35-81,29-46.55-10.02-82.6-63.02-72-95,13.7-41.37,108.94-58.14,169-27,19.01,9.86,58.87,37.16,86,81,0,0,34.47,55.71,59,59,.26.03,14.99,2,15,2-3.36,13.19-2.16,17.68,0,19,2.8,1.71,6.93-2.1,10,0,3.89,2.66,1.24,11.51,3,12,1.68.47,3.31-7.74,10-13,6.47-5.08,16.39-6.39,19-3,2.37,3.08-3.17,7.59-2,15,1.11,7.04,7.73,13.13,14,15,12.91,3.84,28.7-8.88,34-23,4.53-12.08,2.7-28.71-6-35-3.93-2.84-8.3-2.88-9-6-.97-4.32,6.88-6.6,9-14,2.02-7.05-1.71-16.83-8-20-9.74-4.9-22.42,7.62-26,4-3.91-3.96,12.14-17.97,8-30-4.54-13.2-30.42-15.39-44-13-3.43.6-10.85,2-13,7-.63,1.46-1.55,4.96-.69,8.79.25,1.14.53,1.71.69,2.21,1.68,5.4-7.56,13.63-9,15-9.37,8.88-4.13,26.31-4,47,.2,32.73-12.63,33.42-12,63,.26,12.04.71,33.39,14,49,27.84,32.71,98.84,24.78,108,2,4.11-10.21-3.78-24.48-13-32-13.28-10.82-29.02-7.38-80-1-46.34,5.8-33.87,3.02-61,7-83.55,12.24-93.68,22.73-98,31-6.68,12.8-4.24,29.47-2,30,1.7.4,3.98-8.33,10-9,2.47-.27,4.45.93,5.96,1.86,4.68,2.85,9.02,9.25,7.04,13.14-1.59,3.13-7.45,4.99-10,3-5.44-4.24,10.43-21.11,8-39-4.24-31.22-61.48-45.67-67-47-17.81-4.3-42.86-10.36-64,4-18.49,12.56-23.94,33.91-26,42-4.21,16.51-2.06,30.04,0,43,1.65,10.39,3.48,21.15,11.03,32.66,1.9,2.89,6.57,9.9,13.97,15.34,20.21,14.86,54.66,13.51,76-5,3.9-3.38,15.53-13.47,18-29,2.46-15.48-6.55-21.53-4-39,.51-3.52,2.92-20.01,15-28,14.19-9.38,37.01-3.93,49.25,7,24.96,22.28,19.26,79.22-8.25,113-32.19,39.53-86.47,37.83-113,37-36.53-1.14-91.43-13.31-93-33-1.54-19.25,47.78-47.09,93-41,30.92,4.17,70.22,25.59,70,52-.24,29.59-49.93,47.78-56,50-48.71,17.83-110.91,5.03-114-14-3.71-22.89,75.09-73.66,132-55,23.55,7.72,22.5,20.5,87,61,35.35,22.2,47.25,25.64,60,25,19.72-.99,40.91-11.71,48-3,3.61,4.44.81,10.55,4,12,6.29,2.86,17-21.02,34-21,6.27,0,8.36,3.26,13.53,4.73,23.61,6.76,68.03-35.83,60.98-54.01-10.61-27.35-142.14-10.87-144.51,10.28-.94,8.44,18.69,17.47,29,21"/>
</svg>